<?xml version="1.0" encoding="UTF-8"?>
<svg 
		viewBox="0 0 110 100" 
		xmlns="http://www.w3.org/2000/svg"
>
<!-- The x utensils -->
	<path 
		d="
			M  00  10
			C  30  00, 30 30, 50 40
			C  55  40, 60 20, 65 15
			L  80  00
			Q  84 -03, 83 03
			Q  48  44, 86  06
			Q  90  02, 89 09
			Q  50  50, 91  11
			Q  97  10, 94 14
			Q  56  52, 97 17
			Q 103  16, 100 20
			L 100  20
			L  85  35
			C  80  40, 60 45, 60 50
			L  60  50
			L  95  85
			L  85  95
			L  50  60
			L  14  94
			L  06  86
			L  40  50
			L  00  10
			Z
		" 
		fill="black" 
	/>
	
<!-- The E -->
	<path 
		d="
			M  05  32
			h  19.5
			v   7.5
			h -10.5
			v   7.5
			h  10.5
			v   7.5
			h -10.5
			v   7.5
			h  10.5
			v   7.5
			h -19.5
			Z
		" 
		fill="black" 
	/>
	
<!-- The P -->
<g fill-rule="evenodd">
	<path 
		d="
			M  75  32
			v  37.5
			h   9.0
			v -15.0
			h   6.0
			A   10 10 0 0 0 90 32
			Z
			M  84  39.5
			v  7.5
			h  6
			A  3.75 3.75 0 0 0 90 39.5
		" 
		fill="black" 
	/>
</g>
</svg>










