<?xml version="1.0" encoding="UTF-8"?>
<svg 
		viewBox="0 0 100 100" 
		xmlns="http://www.w3.org/2000/svg"
>
	<path 
		d="
			M  00  10
			C  30  00, 30 30, 50 40
			C  55  40, 60 20, 65 15
			L  80  00
			L  83  03
			Q  48  44, 86  06
			L  89  09
			Q  50  50, 91  11
			L  94  14
			Q  52  56, 97 17
			L  79  29
			L  82  32
			L  97  17
			L 100  20
			L  85  35
			C  80  40, 60 45, 60 50
			L  60  50
			L  95  85
			L  85  95
			L  50  60
			L  15  95
			L  05  85
			L  40  50
			L  00  10
			Z
		" 
		fill="black" 
	/>
</svg>
